<?xml version="1.0" encoding="UTF-8"?>
<svg version="1.1" xmlns="http://www.w3.org/2000/svg" width="22" height="26">
<path d="M0 0 C2.3125 1.875 2.3125 1.875 4 4 C6.63222962 5.25436187 6.63222962 5.25436187 9 6 C8.67 7.65 8.34 9.3 8 11 C6.35 11 4.7 11 3 11 C3 15.95 3 20.9 3 26 C-2.28 26 -7.56 26 -13 26 C-13.08074862 22.22874047 -13.1403818 18.45920007 -13.1875 14.6875 C-13.21263672 13.61564453 -13.23777344 12.54378906 -13.26367188 11.43945312 C-13.27333984 10.41142578 -13.28300781 9.38339844 -13.29296875 8.32421875 C-13.3086792 7.37635498 -13.32438965 6.42849121 -13.34057617 5.4519043 C-13 3 -13 3 -11.62792969 1.19433594 C-8.29437299 -1.25133883 -3.91744875 -0.60119263 0 0 Z " fill="#258AE4" transform="translate(13,0)"/>
<path d="M0 0 C2.3125 1.875 2.3125 1.875 4 4 C6.63222962 5.25436187 6.63222962 5.25436187 9 6 C8.67 7.65 8.34 9.3 8 11 C6.35 11 4.7 11 3 11 C3 15.95 3 20.9 3 26 C2.34 26 1.68 26 1 26 C1 20.39 1 14.78 1 9 C2.98 9 4.96 9 7 9 C7 8.34 7 7.68 7 7 C5.8553125 7.12375 5.8553125 7.12375 4.6875 7.25 C3.800625 7.1675 2.91375 7.085 2 7 C1.566875 6.34 1.13375 5.68 0.6875 5 C-0.77857982 2.81901856 -0.77857982 2.81901856 -2.92578125 2.69921875 C-4.95297287 2.68841666 -6.97933978 2.83704353 -9 3 C-10.65079442 4.65079442 -10.22549447 6.63736179 -10.31640625 8.91015625 C-10.35830078 9.89951172 -10.40019531 10.88886719 -10.44335938 11.90820312 C-10.50233398 13.46958008 -10.50233398 13.46958008 -10.5625 15.0625 C-10.60568359 16.10728516 -10.64886719 17.15207031 -10.69335938 18.22851562 C-10.79981225 20.81886884 -10.9018276 23.40932186 -11 26 C-11.66 26 -12.32 26 -13 26 C-13.086985 22.22931168 -13.14038579 18.45888068 -13.1875 14.6875 C-13.21263672 13.61564453 -13.23777344 12.54378906 -13.26367188 11.43945312 C-13.27333984 10.41142578 -13.28300781 9.38339844 -13.29296875 8.32421875 C-13.3086792 7.37635498 -13.32438965 6.42849121 -13.34057617 5.4519043 C-13 3 -13 3 -11.62792969 1.19433594 C-8.29437299 -1.25133883 -3.91744875 -0.60119263 0 0 Z " fill="#030303" transform="translate(13,0)"/>
<path d="M0 0 C2.73255991 0.06447056 3.77132266 0.11231558 6.0625 1.6875 C7.0625 3.3125 7.0625 3.3125 7.0625 5.3125 C8.7125 5.3125 10.3625 5.3125 12.0625 5.3125 C12.0625 5.9725 12.0625 6.6325 12.0625 7.3125 C6.1225 7.3125 0.1825 7.3125 -5.9375 7.3125 C-5.9375 0.47123016 -5.9375 0.47123016 0 0 Z " fill="#D7DCED" transform="translate(7.9375,1.6875)"/>
<path d="M0 0 C2.05078125 0.03255208 4.1015625 0.06510417 6.15234375 0.09765625 C6.48234375 1.41765625 6.81234375 2.73765625 7.15234375 4.09765625 C6.16234375 3.76765625 5.17234375 3.43765625 4.15234375 3.09765625 C3.82234375 3.75765625 3.49234375 4.41765625 3.15234375 5.09765625 C1.83234375 4.43765625 0.51234375 3.77765625 -0.84765625 3.09765625 C-1.17765625 3.75765625 -1.50765625 4.41765625 -1.84765625 5.09765625 C-2.41015625 3.16015625 -2.41015625 3.16015625 -2.84765625 1.09765625 C-1.84765625 0.09765625 -1.84765625 0.09765625 0 0 Z " fill="#DEE6FE" transform="translate(6.84765625,9.90234375)"/>
</svg>
